<svg fill="#000000" version="1.1" id="Layer_1" xmlns="http://www.w3.org/2000/svg" xmlns:xlink="http://www.w3.org/1999/xlink" viewBox="0 0 24 24" xml:space="preserve"><g id="SVGRepo_bgCarrier" stroke-width="0"></g><g id="SVGRepo_tracerCarrier" stroke-linecap="round" stroke-linejoin="round"></g><g id="SVGRepo_iconCarrier"> <style type="text/css"> .st0{fill:none;} </style> <g> <path d="M12,2C6.5,2,2,6.5,2,12s4.5,10,10,10s10-4.5,10-10S17.5,2,12,2z M12,20c-4.5,0-8-3.5-8-8s3.5-8,8-8s8,3.5,8,8 S16.5,20,12,20z"></path> <polygon points="17.9,11 13,11 13,6.1 11,6.1 11,11 6.1,11 6.1,13 11,13 11,17.9 13,17.9 13,13 17.9,13 "></polygon> </g> <rect class="st0" width="24" height="24"></rect> </g></svg>
